<?xml version="1.0" encoding="UTF-8"?>
<!DOCTYPE svg PUBLIC "-//W3C//DTD SVG 1.1//EN" "http://www.w3.org/Graphics/SVG/1.1/DTD/svg11.dtd">
<svg version="1.1" xmlns="http://www.w3.org/2000/svg" xmlns:xlink="http://www.w3.org/1999/xlink" x="0" y="0" width="19" height="25" viewBox="0, 0, 19, 25">
  <g id="Layer_1">
    <path d="M18.135,24.6 C17.912,24.829 17.561,25 17.012,25 L1.988,25 C1.439,25 1.089,24.829 0.866,24.6 C0.387,24.108 0.484,22.806 0.484,22.028 L0.484,10.785 C0.484,10.008 0.387,8.706 0.866,8.217 C1.089,7.99 1.439,7.82 1.987,7.82 C1.987,7.82 2.325,7.82 2.741,7.82 C3.158,7.82 3.486,7.188 3.561,6.414 C4.202,-0.155 9.326,0 9.326,0 C13.565,0 14.885,4.175 15.29,6.424 C15.427,7.188 15.81,7.82 16.238,7.82 L17.012,7.82 C17.56,7.82 17.91,7.99 18.133,8.217 C18.613,8.706 18.515,10.007 18.515,10.785 L18.515,22.029 C18.515,22.807 18.613,24.109 18.135,24.6 z M8.049,1.631 C5.927,2.362 5.243,4.828 5.023,6.417 C4.917,7.187 5.526,7.82 6.275,7.82 L12.749,7.82 C13.497,7.82 14.114,7.187 14.04,6.414 C13.692,2.764 11.977,1.721 10.729,1.455 C9.997,1.299 8.759,1.386 8.049,1.631 z M15.658,20.313 L3.343,20.313 C2.594,20.313 1.988,20.662 1.988,21.094 L1.988,21.875 C1.988,22.738 2.661,23.437 3.491,23.437 L15.51,23.437 C16.34,23.437 17.013,22.738 17.013,21.875 C17.013,21.875 17.013,21.525 17.013,21.094 C17.012,20.662 16.406,20.313 15.658,20.313 z" fill="#464646"/>
  </g>
</svg>
